<svg width="1076" height="272" viewBox="0 0 1076 272" fill="none" xmlns="http://www.w3.org/2000/svg">
<rect x="106.268" y="8" width="98.2674" height="196.301" fill="#3F83F8"/>
<g style="mix-blend-mode:color-burn">
<path fill-rule="evenodd" clip-rule="evenodd" d="M204.535 8H8V204.301H204.534L8.001 8.0015H204.535V8Z" fill="#0E9F6E"/>
</g>
<path d="M276.748 73.5295C289.063 73.5295 299.699 75.6915 308.656 80.0154C317.613 84.2648 324.517 90.6761 329.368 99.2493C334.22 107.823 336.646 118.558 336.646 131.455V150.913H258.387C258.76 157.548 261.223 162.99 265.776 167.239C270.404 171.488 277.196 173.613 286.152 173.613C294.064 173.613 301.304 172.83 307.872 171.265C314.515 169.699 321.345 167.276 328.361 163.996V195.419C322.24 198.625 315.56 200.973 308.32 202.464C301.08 203.955 291.937 204.701 280.89 204.701C268.127 204.701 256.707 202.427 246.631 197.879C236.555 193.332 228.606 186.287 222.784 176.744C217.037 167.202 214.163 154.938 214.163 139.954C214.163 124.746 216.776 112.258 222 102.492C227.225 92.6517 234.54 85.383 243.944 80.6864C253.349 75.9151 264.283 73.5295 276.748 73.5295ZM278.315 103.275C273.165 103.275 268.836 104.915 265.328 108.195C261.895 111.401 259.88 116.47 259.283 123.404H296.9C296.826 119.676 296.079 116.284 294.661 113.228C293.243 110.171 291.153 107.748 288.392 105.959C285.705 104.17 282.346 103.275 278.315 103.275Z" fill="white"/>
<path d="M392.386 137.829L353.648 75.766H403.358L422.614 111.326L442.319 75.766H492.14L452.395 137.829L493.708 202.464H443.998L422.614 163.996L401.342 202.464H351.521L392.386 137.829Z" fill="white"/>
<path d="M576.206 170.147C580.162 170.147 583.782 169.737 587.066 168.916C590.35 168.096 593.783 167.053 597.366 165.785V197.656C592.589 199.743 587.514 201.42 582.14 202.688C576.84 204.03 570.048 204.701 561.763 204.701C553.553 204.701 546.313 203.433 540.043 200.899C533.774 198.289 528.885 193.816 525.377 187.479C521.943 181.068 520.227 172.159 520.227 160.753V108.531H504.888V90.7506L524.369 76.9961L535.677 50.3817H564.338V75.766H595.463V108.531H564.338V157.846C564.338 161.946 565.383 165.04 567.473 167.127C569.563 169.14 572.474 170.147 576.206 170.147Z" fill="white"/>
<path d="M691.956 106.742H762.601V194.86C754.167 197.767 744.501 200.153 733.604 202.017C722.707 203.806 711.287 204.701 699.345 204.701C683.596 204.701 669.788 201.644 657.92 195.531C646.053 189.418 636.797 180.136 630.155 167.686C623.512 155.162 620.19 139.357 620.19 120.272C620.19 103.126 623.474 88.3277 630.043 75.8779C636.611 63.3534 646.277 53.6992 659.04 46.9151C671.878 40.0565 687.589 36.6272 706.174 36.6272C716.4 36.6272 726.103 37.5963 735.283 39.5347C744.464 41.473 752.45 43.9331 759.242 46.9151L745.248 81.581C739.351 78.6735 733.231 76.5115 726.887 75.0951C720.542 73.6041 713.713 72.8586 706.398 72.8586C696.62 72.8586 688.746 75.0578 682.775 79.4563C676.879 83.8547 672.587 89.7442 669.9 97.1247C667.213 104.431 665.869 112.519 665.869 121.391C665.869 131.53 667.287 140.103 670.124 147.111C673.035 154.044 677.252 159.337 682.775 162.99C688.373 166.568 695.128 168.357 703.039 168.357C705.652 168.357 708.824 168.171 712.556 167.798C716.362 167.425 719.236 166.978 721.177 166.456V140.848H691.956V106.742Z" fill="white"/>
<path d="M854.616 73.5295C866.931 73.5295 877.567 75.6915 886.524 80.0154C895.48 84.2648 902.385 90.6761 907.236 99.2493C912.088 107.823 914.513 118.558 914.513 131.455V150.913H836.255C836.628 157.548 839.091 162.99 843.644 167.239C848.271 171.488 855.064 173.613 864.02 173.613C871.932 173.613 879.172 172.83 885.74 171.265C892.383 169.699 899.212 167.276 906.228 163.996V195.419C900.108 198.625 893.428 200.973 886.188 202.464C878.948 203.955 869.805 204.701 858.758 204.701C845.995 204.701 834.575 202.427 824.499 197.879C814.423 193.332 806.474 186.287 800.652 176.744C794.905 167.202 792.031 154.938 792.031 139.954C792.031 124.746 794.643 112.258 799.868 102.492C805.093 92.6517 812.407 85.383 821.812 80.6864C831.216 75.9151 842.151 73.5295 854.616 73.5295ZM856.183 103.275C851.033 103.275 846.704 104.915 843.196 108.195C839.763 111.401 837.747 116.47 837.15 123.404H874.768C874.694 119.676 873.947 116.284 872.529 113.228C871.111 110.171 869.021 107.748 866.259 105.959C863.572 104.17 860.214 103.275 856.183 103.275Z" fill="white"/>
<path d="M1022.76 73.5295C1035.82 73.5295 1046.5 77.2198 1054.78 84.6002C1063.07 91.9807 1067.21 103.797 1067.21 120.049V202.464H1023.43V133.356C1023.43 124.932 1022.2 118.595 1019.74 114.346C1017.35 110.022 1013.47 107.86 1008.1 107.86C999.81 107.86 994.25 111.252 991.413 118.036C988.577 124.746 987.159 134.4 987.159 146.999V202.464H943.383V75.766H976.411L982.345 92.5398H984.024C986.711 88.5141 989.921 85.0848 993.653 82.2519C997.385 79.419 1001.68 77.257 1006.53 75.766C1011.38 74.275 1016.79 73.5295 1022.76 73.5295Z" fill="white"/>
<rect x="8" y="221.059" width="343.527" height="42.9409" fill="#3F83F8"/>
<path d="M30.9684 261.439H10.0449V223.698H30.9684V227.57H14.4147V239.78H30.0173V243.601H14.4147V257.567H30.9684V261.439Z" fill="white"/>
<path d="M40.3495 261.439V223.698H44.7193V257.515H61.4015V261.439H40.3495Z" fill="white"/>
<path d="M89.8296 261.439H68.9062V223.698H89.8296V227.57H73.2759V239.78H88.8786V243.601H73.2759V257.567H89.8296V261.439Z" fill="white"/>
<path d="M115.276 227.028C113.203 227.028 111.335 227.389 109.672 228.112C108.027 228.818 106.622 229.85 105.457 231.21C104.309 232.552 103.426 234.179 102.809 236.089C102.192 237.999 101.884 240.15 101.884 242.543C101.884 245.709 102.372 248.463 103.349 250.803C104.343 253.127 105.817 254.925 107.77 256.199C109.741 257.472 112.2 258.109 115.148 258.109C116.827 258.109 118.403 257.971 119.877 257.696C121.368 257.403 122.816 257.042 124.221 256.612V260.432C122.85 260.949 121.411 261.327 119.903 261.568C118.395 261.826 116.604 261.955 114.531 261.955C110.709 261.955 107.513 261.164 104.943 259.58C102.39 257.98 100.47 255.725 99.185 252.817C97.9169 249.908 97.2829 246.475 97.2829 242.517C97.2829 239.66 97.677 237.053 98.4653 234.695C99.2707 232.32 100.436 230.272 101.961 228.551C103.503 226.83 105.388 225.505 107.616 224.575C109.861 223.629 112.431 223.156 115.327 223.156C117.23 223.156 119.063 223.345 120.828 223.724C122.593 224.102 124.187 224.644 125.609 225.35L123.861 229.067C122.662 228.517 121.342 228.043 119.903 227.647C118.481 227.234 116.938 227.028 115.276 227.028Z" fill="white"/>
<path d="M144.964 261.439H140.568V227.57H128.744V223.698H156.736V227.57H144.964V261.439Z" fill="white"/>
<path d="M173.623 223.698C176.708 223.698 179.252 224.085 181.257 224.859C183.28 225.617 184.787 226.778 185.781 228.344C186.775 229.911 187.272 231.907 187.272 234.333C187.272 236.33 186.912 237.999 186.193 239.342C185.473 240.667 184.53 241.742 183.365 242.568C182.2 243.394 180.958 244.031 179.638 244.479L189.946 261.439H184.856L175.654 245.692H167.84V261.439H163.47V223.698H173.623ZM173.366 227.493H167.84V241.975H173.803C176.871 241.975 179.124 241.346 180.563 240.09C182.02 238.834 182.748 236.984 182.748 234.54C182.748 231.976 181.977 230.16 180.435 229.093C178.91 228.026 176.554 227.493 173.366 227.493Z" fill="white"/>
<path d="M229.607 242.517C229.607 245.425 229.238 248.076 228.501 250.468C227.764 252.843 226.668 254.891 225.211 256.612C223.772 258.315 221.981 259.632 219.839 260.561C217.697 261.491 215.212 261.955 212.385 261.955C209.471 261.955 206.927 261.491 204.75 260.561C202.591 259.632 200.792 258.307 199.352 256.586C197.93 254.865 196.859 252.808 196.139 250.416C195.437 248.024 195.085 245.374 195.085 242.465C195.085 238.61 195.719 235.228 196.988 232.32C198.256 229.411 200.175 227.148 202.745 225.531C205.333 223.913 208.572 223.104 212.462 223.104C216.18 223.104 219.308 223.904 221.844 225.505C224.397 227.105 226.325 229.36 227.627 232.268C228.947 235.16 229.607 238.576 229.607 242.517ZM199.687 242.517C199.687 245.718 200.141 248.489 201.049 250.829C201.957 253.17 203.345 254.977 205.213 256.25C207.098 257.524 209.488 258.161 212.385 258.161C215.298 258.161 217.68 257.524 219.53 256.25C221.398 254.977 222.778 253.17 223.669 250.829C224.56 248.489 225.005 245.718 225.005 242.517C225.005 237.646 223.986 233.843 221.947 231.107C219.925 228.353 216.763 226.976 212.462 226.976C209.548 226.976 207.149 227.604 205.264 228.861C203.379 230.117 201.974 231.907 201.049 234.23C200.141 236.536 199.687 239.298 199.687 242.517Z" fill="white"/>
<path d="M268.419 261.439H263.381L242.895 229.738H242.689C242.741 230.582 242.8 231.545 242.869 232.63C242.938 233.697 242.989 234.841 243.023 236.063C243.075 237.268 243.1 238.498 243.1 239.755V261.439H239.039V223.698H244.051L264.461 255.295H264.641C264.606 254.693 264.564 253.841 264.512 252.739C264.461 251.621 264.409 250.425 264.358 249.151C264.324 247.86 264.307 246.664 264.307 245.563V223.698H268.419V261.439Z" fill="white"/>
<path d="M279.728 261.439V223.698H284.098V261.439H279.728Z" fill="white"/>
<path d="M311.549 227.028C309.476 227.028 307.608 227.389 305.946 228.112C304.301 228.818 302.896 229.85 301.73 231.21C300.582 232.552 299.7 234.179 299.083 236.089C298.466 237.999 298.157 240.15 298.157 242.543C298.157 245.709 298.646 248.463 299.622 250.803C300.616 253.127 302.09 254.925 304.044 256.199C306.014 257.472 308.473 258.109 311.421 258.109C313.1 258.109 314.677 257.971 316.15 257.696C317.641 257.403 319.089 257.042 320.495 256.612V260.432C319.124 260.949 317.684 261.327 316.176 261.568C314.668 261.826 312.877 261.955 310.804 261.955C306.983 261.955 303.787 261.164 301.216 259.58C298.663 257.98 296.744 255.725 295.458 252.817C294.19 249.908 293.556 246.475 293.556 242.517C293.556 239.66 293.95 237.053 294.739 234.695C295.544 232.32 296.709 230.272 298.234 228.551C299.777 226.83 301.662 225.505 303.889 224.575C306.134 223.629 308.705 223.156 311.601 223.156C313.503 223.156 315.337 223.345 317.102 223.724C318.867 224.102 320.46 224.644 321.883 225.35L320.135 229.067C318.935 228.517 317.616 228.043 316.176 227.647C314.754 227.234 313.212 227.028 311.549 227.028Z" fill="white"/>
<path d="M350.902 251.397C350.902 253.634 350.345 255.545 349.231 257.128C348.134 258.694 346.592 259.89 344.604 260.716C342.617 261.542 340.277 261.955 337.587 261.955C336.165 261.955 334.819 261.886 333.551 261.749C332.283 261.611 331.118 261.413 330.056 261.155C328.993 260.897 328.059 260.579 327.254 260.2V255.992C328.539 256.526 330.107 257.025 331.958 257.489C333.808 257.937 335.745 258.161 337.767 258.161C339.652 258.161 341.246 257.911 342.548 257.412C343.85 256.896 344.836 256.164 345.504 255.218C346.189 254.254 346.532 253.101 346.532 251.758C346.532 250.468 346.249 249.392 345.684 248.532C345.118 247.654 344.176 246.862 342.856 246.157C341.554 245.434 339.772 244.668 337.51 243.859C335.916 243.291 334.511 242.672 333.294 242C332.078 241.312 331.058 240.538 330.236 239.677C329.413 238.817 328.788 237.818 328.359 236.683C327.948 235.547 327.742 234.247 327.742 232.785C327.742 230.771 328.248 229.05 329.259 227.622C330.287 226.176 331.701 225.075 333.5 224.317C335.316 223.543 337.399 223.156 339.746 223.156C341.751 223.156 343.602 223.345 345.298 223.724C347.012 224.102 348.58 224.61 350.002 225.247L348.64 229.016C347.286 228.448 345.847 227.974 344.322 227.596C342.814 227.217 341.254 227.028 339.643 227.028C338.033 227.028 336.67 227.269 335.556 227.751C334.46 228.215 333.62 228.878 333.037 229.738C332.455 230.599 332.163 231.623 332.163 232.81C332.163 234.136 332.438 235.237 332.986 236.115C333.551 236.992 334.442 237.775 335.659 238.464C336.893 239.135 338.521 239.841 340.543 240.581C342.754 241.389 344.63 242.25 346.172 243.162C347.715 244.057 348.888 245.158 349.694 246.466C350.499 247.757 350.902 249.401 350.902 251.397Z" fill="white"/>
<path d="M395.292 261.439H374.368V223.698H395.292V227.57H378.738V239.78H394.341V243.601H378.738V257.567H395.292V261.439Z" fill="white"/>
<path d="M404.673 261.439V223.698H409.042V257.515H425.725V261.439H404.673Z" fill="white"/>
<path d="M454.153 261.439H433.229V223.698H454.153V227.57H437.599V239.78H453.202V243.601H437.599V257.567H454.153V261.439Z" fill="white"/>
<path d="M489.778 223.698L476.283 261.439H471.888L458.393 223.698H462.968L471.759 248.557C472.119 249.556 472.436 250.511 472.71 251.423C473.002 252.335 473.259 253.213 473.482 254.056C473.704 254.899 473.901 255.717 474.073 256.508C474.244 255.717 474.441 254.899 474.664 254.056C474.887 253.195 475.144 252.309 475.435 251.397C475.726 250.468 476.052 249.495 476.412 248.48L485.151 223.698H489.778Z" fill="white"/>
<path d="M519.569 261.439L514.942 249.461H499.879L495.278 261.439H490.857L505.56 223.543H509.493L524.093 261.439H519.569ZM513.631 245.563L509.235 233.662C509.133 233.352 508.961 232.845 508.721 232.139C508.499 231.434 508.267 230.702 508.027 229.945C507.787 229.188 507.59 228.577 507.436 228.112C507.265 228.818 507.076 229.523 506.871 230.229C506.682 230.917 506.494 231.563 506.305 232.165C506.117 232.75 505.954 233.249 505.817 233.662L501.344 245.563H513.631Z" fill="white"/>
<path d="M541.905 261.439H537.509V227.57H525.685V223.698H553.678V227.57H541.905V261.439Z" fill="white"/>
<path d="M581.334 261.439H560.411V223.698H581.334V227.57H564.781V239.78H580.383V243.601H564.781V257.567H581.334V261.439Z" fill="white"/>
<path d="M648.138 223.698L638.088 261.439H633.692L626.238 236.037C626.015 235.314 625.801 234.592 625.596 233.869C625.407 233.129 625.227 232.432 625.056 231.778C624.884 231.107 624.739 230.521 624.619 230.022C624.516 229.506 624.439 229.119 624.387 228.861C624.353 229.119 624.285 229.497 624.182 229.997C624.096 230.496 623.976 231.072 623.822 231.726C623.685 232.38 623.514 233.077 623.308 233.817C623.119 234.557 622.914 235.306 622.691 236.063L615.442 261.439H611.047L601.074 223.698H605.623L611.664 247.37C611.869 248.162 612.058 248.945 612.229 249.719C612.418 250.476 612.581 251.216 612.718 251.939C612.872 252.662 613.009 253.368 613.129 254.056C613.249 254.744 613.36 255.416 613.463 256.07C613.549 255.398 613.66 254.701 613.797 253.979C613.934 253.238 614.08 252.49 614.234 251.733C614.406 250.975 614.585 250.21 614.774 249.435C614.98 248.661 615.194 247.886 615.417 247.112L622.177 223.698H626.675L633.718 247.292C633.958 248.101 634.181 248.902 634.387 249.693C634.592 250.485 634.772 251.259 634.926 252.017C635.098 252.757 635.243 253.471 635.363 254.159C635.5 254.83 635.62 255.467 635.723 256.07C635.843 255.226 635.989 254.34 636.16 253.411C636.331 252.481 636.529 251.509 636.751 250.494C636.991 249.478 637.248 248.428 637.522 247.344L643.563 223.698H648.138Z" fill="white"/>
<path d="M655.129 261.439V223.698H659.499V261.439H655.129Z" fill="white"/>
<path d="M682.426 261.439H678.031V227.57H666.207V223.698H694.199V227.57H682.426V261.439Z" fill="white"/>
<path d="M729.413 261.439H725.043V243.653H705.302V261.439H700.932V223.698H705.302V239.78H725.043V223.698H729.413V261.439Z" fill="white"/>
<path d="M776.45 261.439H755.527V223.698H776.45V227.57H759.896V239.78H775.499V243.601H759.896V257.567H776.45V261.439Z" fill="white"/>
<path d="M812.076 223.698L798.581 261.439H794.185L780.69 223.698H785.266L794.057 248.557C794.417 249.556 794.734 250.511 795.008 251.423C795.299 252.335 795.556 253.213 795.779 254.056C796.002 254.899 796.199 255.717 796.37 256.508C796.541 255.717 796.738 254.899 796.961 254.056C797.184 253.195 797.441 252.309 797.732 251.397C798.024 250.468 798.349 249.495 798.709 248.48L807.449 223.698H812.076Z" fill="white"/>
<path d="M839.218 261.439H818.295V223.698H839.218V227.57H822.665V239.78H838.267V243.601H822.665V257.567H839.218V261.439Z" fill="white"/>
<path d="M858.753 223.698C861.837 223.698 864.382 224.085 866.387 224.859C868.409 225.617 869.917 226.778 870.911 228.344C871.905 229.911 872.402 231.907 872.402 234.333C872.402 236.33 872.042 237.999 871.322 239.342C870.603 240.667 869.66 241.742 868.495 242.568C867.33 243.394 866.087 244.031 864.768 244.479L875.075 261.439H869.986L860.783 245.692H852.969V261.439H848.6V223.698H858.753ZM858.496 227.493H852.969V241.975H858.933C862 241.975 864.254 241.346 865.693 240.09C867.15 238.834 867.878 236.984 867.878 234.54C867.878 231.976 867.107 230.16 865.565 229.093C864.039 228.026 861.683 227.493 858.496 227.493Z" fill="white"/>
<path d="M891.731 242.62L901.73 223.698H906.434L893.916 246.802V261.439H889.546V247.009L877.002 223.698H881.783L891.731 242.62Z" fill="white"/>
<path d="M943.446 227.028C941.373 227.028 939.505 227.389 937.842 228.112C936.197 228.818 934.792 229.85 933.627 231.21C932.479 232.552 931.596 234.179 930.979 236.089C930.362 237.999 930.054 240.15 930.054 242.543C930.054 245.709 930.542 248.463 931.519 250.803C932.513 253.127 933.987 254.925 935.94 256.199C937.911 257.472 940.37 258.109 943.318 258.109C944.997 258.109 946.573 257.971 948.047 257.696C949.538 257.403 950.986 257.042 952.391 256.612V260.432C951.02 260.949 949.581 261.327 948.073 261.568C946.565 261.826 944.774 261.955 942.701 261.955C938.879 261.955 935.683 261.164 933.113 259.58C930.56 257.98 928.64 255.725 927.355 252.817C926.087 249.908 925.453 246.475 925.453 242.517C925.453 239.66 925.847 237.053 926.635 234.695C927.441 232.32 928.606 230.272 930.131 228.551C931.673 226.83 933.558 225.505 935.786 224.575C938.031 223.629 940.601 223.156 943.497 223.156C945.4 223.156 947.233 223.345 948.998 223.724C950.763 224.102 952.357 224.644 953.779 225.35L952.031 229.067C950.832 228.517 949.512 228.043 948.073 227.647C946.651 227.234 945.108 227.028 943.446 227.028Z" fill="white"/>
<path d="M961.592 261.439V223.698H965.962V257.515H982.644V261.439H961.592Z" fill="white"/>
<path d="M990.149 261.439V223.698H994.519V261.439H990.149Z" fill="white"/>
<path d="M1021.97 227.028C1019.9 227.028 1018.03 227.389 1016.37 228.112C1014.72 228.818 1013.32 229.85 1012.15 231.21C1011 232.552 1010.12 234.179 1009.5 236.089C1008.89 237.999 1008.58 240.15 1008.58 242.543C1008.58 245.709 1009.07 248.463 1010.04 250.803C1011.04 253.127 1012.51 254.925 1014.46 256.199C1016.44 257.472 1018.89 258.109 1021.84 258.109C1023.52 258.109 1025.1 257.971 1026.57 257.696C1028.06 257.403 1029.51 257.042 1030.92 256.612V260.432C1029.54 260.949 1028.11 261.327 1026.6 261.568C1025.09 261.826 1023.3 261.955 1021.22 261.955C1017.4 261.955 1014.21 261.164 1011.64 259.58C1009.08 257.98 1007.16 255.725 1005.88 252.817C1004.61 249.908 1003.98 246.475 1003.98 242.517C1003.98 239.66 1004.37 237.053 1005.16 234.695C1005.96 232.32 1007.13 230.272 1008.66 228.551C1010.2 226.83 1012.08 225.505 1014.31 224.575C1016.56 223.629 1019.13 223.156 1022.02 223.156C1023.92 223.156 1025.76 223.345 1027.52 223.724C1029.29 224.102 1030.88 224.644 1032.3 225.35L1030.56 229.067C1029.36 228.517 1028.04 228.043 1026.6 227.647C1025.17 227.234 1023.63 227.028 1021.97 227.028Z" fill="white"/>
<path d="M1067.21 261.439H1062.04L1048.5 243.085L1044.49 246.699V261.439H1040.12V223.698H1044.49V242.517C1045.46 241.398 1046.47 240.288 1047.49 239.187C1048.52 238.068 1049.54 236.941 1050.55 235.805L1061.53 223.698H1066.64L1051.68 240.064L1067.21 261.439Z" fill="white"/>
</svg>
